<svg viewBox="0 0 1024 1024" class="icon" version="1.1"
    xmlns="http://www.w3.org/2000/svg" fill="#000000">
  <g id="SVGRepo_bgCarrier" stroke-width="0"></g>
  <g id="SVGRepo_tracerCarrier" stroke-linecap="round" stroke-linejoin="round"></g>
  <g id="SVGRepo_iconCarrier">
    <path
      d="M706.3 790c92.7 0 167.8-75.1 167.8-167.8S799 454.4 706.3 454.4s-167.8 75.1-167.8 167.8S613.6 790 706.3 790zM707.1 398.6c92.7 0 167.8-75.1 167.8-167.8S799.8 63.1 707.1 63.1 539.3 138.2 539.3 230.9s75.1 167.7 167.8 167.7zM482.7 622.2c0-92.7-75.1-167.8-167.8-167.8S147 529.5 147 622.2 222.1 790 314.8 790s167.9-75.1 167.9-167.8zM314.8 398.6c92.7 0 167.8-75.1 167.8-167.8S407.5 63.1 314.8 63.1 147 138.2 147 230.8s75.2 167.8 167.8 167.8z"
      fill="#ccd5ae">
    </path>
    <path
      d="M314.8 342.6c-61.8 0-111.8-50-111.8-111.8S253.1 119 314.8 119 426.6 169 426.6 230.8s-50 111.8-111.8 111.8zM314.8 734C253 734 203 684 203 622.2c0-61.7 50.1-111.8 111.8-111.8s111.8 50 111.8 111.8c0.1 61.7-50 111.8-111.8 111.8zM707.1 342.6c-61.8 0-111.8-50-111.8-111.8S645.4 119 707.1 119c61.8 0 111.8 50 111.8 111.8s-50.1 111.8-111.8 111.8zM706.3 734c-61.8 0-111.8-50-111.8-111.8 0-61.7 50.1-111.8 111.8-111.8 61.8 0 111.8 50 111.8 111.8 0 61.7-50.1 111.8-111.8 111.8z"
      fill="#283618">
    </path>
  </g>
</svg>